<mxfile host="app.diagrams.net" modified="2020-08-27T12:18:10.268Z" agent="5.0 (Windows)" etag="efo6ixWJ6ILtkEYv8L34" version="13.6.5" type="github">
  <diagram id="E5LGmSx5RB99e8-Ku0kG" name="Page-1">
    <mxGraphModel dx="1038" dy="547" grid="1" gridSize="10" guides="1" tooltips="1" connect="1" arrows="1" fold="1" page="1" pageScale="1" pageWidth="1169" pageHeight="827" math="0" shadow="0">
      <root>
        <mxCell id="0" />
        <mxCell id="1" parent="0" />
        <mxCell id="Ro4SRzFwu5mBoWV_5dLQ-1" value="Trade Information - Information Provision" style="swimlane;html=1;childLayout=stackLayout;resizeParent=1;resizeParentMax=0;horizontal=1;startSize=20;horizontalStack=0;" vertex="1" parent="1">
          <mxGeometry x="40" y="50" width="1100" height="610" as="geometry" />
        </mxCell>
        <mxCell id="Ro4SRzFwu5mBoWV_5dLQ-2" value="Client" style="swimlane;html=1;startSize=20;horizontal=0;" vertex="1" parent="Ro4SRzFwu5mBoWV_5dLQ-1">
          <mxGeometry y="20" width="1100" height="120" as="geometry" />
        </mxCell>
        <mxCell id="Ro4SRzFwu5mBoWV_5dLQ-7" value="Start" style="rounded=1;whiteSpace=wrap;html=1;" vertex="1" parent="Ro4SRzFwu5mBoWV_5dLQ-2">
          <mxGeometry x="46" y="10" width="110" height="40" as="geometry" />
        </mxCell>
        <mxCell id="Ro4SRzFwu5mBoWV_5dLQ-18" value="Fill in Review form" style="whiteSpace=wrap;html=1;rounded=0;" vertex="1" parent="Ro4SRzFwu5mBoWV_5dLQ-2">
          <mxGeometry x="375" y="30" width="120" height="60" as="geometry" />
        </mxCell>
        <mxCell id="Ro4SRzFwu5mBoWV_5dLQ-3" value="Customer Care - Lead" style="swimlane;html=1;startSize=20;horizontal=0;" vertex="1" parent="Ro4SRzFwu5mBoWV_5dLQ-1">
          <mxGeometry y="140" width="1100" height="120" as="geometry" />
        </mxCell>
        <mxCell id="Ro4SRzFwu5mBoWV_5dLQ-4" value="Customer care officer" style="swimlane;html=1;startSize=20;horizontal=0;" vertex="1" parent="Ro4SRzFwu5mBoWV_5dLQ-1">
          <mxGeometry y="260" width="1100" height="120" as="geometry" />
        </mxCell>
        <mxCell id="Ro4SRzFwu5mBoWV_5dLQ-54" value="Review feedback form" style="whiteSpace=wrap;html=1;rounded=0;" vertex="1" parent="Ro4SRzFwu5mBoWV_5dLQ-4">
          <mxGeometry x="540" y="10" width="120" height="60" as="geometry" />
        </mxCell>
        <mxCell id="Ro4SRzFwu5mBoWV_5dLQ-17" value="yes" style="text;html=1;strokeColor=none;fillColor=none;align=center;verticalAlign=middle;whiteSpace=wrap;rounded=0;" vertex="1" parent="Ro4SRzFwu5mBoWV_5dLQ-4">
          <mxGeometry x="338" y="50" width="40" height="20" as="geometry" />
        </mxCell>
        <mxCell id="Ro4SRzFwu5mBoWV_5dLQ-44" value="Client has exportable product?" style="rhombus;whiteSpace=wrap;html=1;rounded=0;" vertex="1" parent="Ro4SRzFwu5mBoWV_5dLQ-4">
          <mxGeometry x="666" y="40" width="130" height="80" as="geometry" />
        </mxCell>
        <mxCell id="Ro4SRzFwu5mBoWV_5dLQ-48" value="End" style="rounded=1;whiteSpace=wrap;html=1;" vertex="1" parent="Ro4SRzFwu5mBoWV_5dLQ-4">
          <mxGeometry x="1000" y="50" width="80" height="40" as="geometry" />
        </mxCell>
        <mxCell id="Ro4SRzFwu5mBoWV_5dLQ-50" value="yes" style="text;html=1;strokeColor=none;fillColor=none;align=center;verticalAlign=middle;whiteSpace=wrap;rounded=0;" vertex="1" parent="Ro4SRzFwu5mBoWV_5dLQ-4">
          <mxGeometry x="796" y="50" width="40" height="20" as="geometry" />
        </mxCell>
        <mxCell id="Ro4SRzFwu5mBoWV_5dLQ-52" value="" style="edgeStyle=orthogonalEdgeStyle;rounded=0;orthogonalLoop=1;jettySize=auto;html=1;entryX=0.5;entryY=0;entryDx=0;entryDy=0;exitX=0.5;exitY=0;exitDx=0;exitDy=0;" edge="1" parent="Ro4SRzFwu5mBoWV_5dLQ-4" source="Ro4SRzFwu5mBoWV_5dLQ-44" target="Ro4SRzFwu5mBoWV_5dLQ-48">
          <mxGeometry relative="1" as="geometry">
            <mxPoint x="731" y="-80" as="targetPoint" />
            <Array as="points">
              <mxPoint x="731" y="10" />
              <mxPoint x="1040" y="10" />
            </Array>
          </mxGeometry>
        </mxCell>
        <mxCell id="Ro4SRzFwu5mBoWV_5dLQ-62" value="" style="endArrow=none;html=1;" edge="1" parent="Ro4SRzFwu5mBoWV_5dLQ-4" source="Ro4SRzFwu5mBoWV_5dLQ-54">
          <mxGeometry width="50" height="50" relative="1" as="geometry">
            <mxPoint x="720" y="80" as="sourcePoint" />
            <mxPoint x="740" y="10" as="targetPoint" />
            <Array as="points">
              <mxPoint x="700" y="40" />
              <mxPoint x="700" y="13" />
              <mxPoint x="710" y="10" />
            </Array>
          </mxGeometry>
        </mxCell>
        <mxCell id="Ro4SRzFwu5mBoWV_5dLQ-63" value="no" style="text;html=1;strokeColor=none;fillColor=none;align=center;verticalAlign=middle;whiteSpace=wrap;rounded=0;" vertex="1" parent="Ro4SRzFwu5mBoWV_5dLQ-4">
          <mxGeometry x="728" y="20" width="40" height="20" as="geometry" />
        </mxCell>
        <mxCell id="Ro4SRzFwu5mBoWV_5dLQ-5" value="Business Councillor" style="swimlane;html=1;startSize=20;horizontal=0;" vertex="1" parent="Ro4SRzFwu5mBoWV_5dLQ-1">
          <mxGeometry y="380" width="1100" height="230" as="geometry" />
        </mxCell>
        <mxCell id="Ro4SRzFwu5mBoWV_5dLQ-20" value="Find information" style="whiteSpace=wrap;html=1;rounded=0;" vertex="1" parent="Ro4SRzFwu5mBoWV_5dLQ-5">
          <mxGeometry x="225" y="30" width="120" height="60" as="geometry" />
        </mxCell>
        <mxCell id="Ro4SRzFwu5mBoWV_5dLQ-26" value="no" style="text;html=1;strokeColor=none;fillColor=none;align=center;verticalAlign=middle;whiteSpace=wrap;rounded=0;" vertex="1" parent="Ro4SRzFwu5mBoWV_5dLQ-5">
          <mxGeometry x="276" y="1" width="40" height="20" as="geometry" />
        </mxCell>
        <mxCell id="Ro4SRzFwu5mBoWV_5dLQ-31" value="yes" style="text;html=1;strokeColor=none;fillColor=none;align=center;verticalAlign=middle;whiteSpace=wrap;rounded=0;" vertex="1" parent="Ro4SRzFwu5mBoWV_5dLQ-5">
          <mxGeometry x="490" y="40" width="40" height="20" as="geometry" />
        </mxCell>
        <mxCell id="Ro4SRzFwu5mBoWV_5dLQ-38" value="yes" style="text;html=1;strokeColor=none;fillColor=none;align=center;verticalAlign=middle;whiteSpace=wrap;rounded=0;" vertex="1" parent="Ro4SRzFwu5mBoWV_5dLQ-5">
          <mxGeometry x="599" y="100" width="40" height="20" as="geometry" />
        </mxCell>
        <mxCell id="Ro4SRzFwu5mBoWV_5dLQ-34" value="Client pays?" style="rhombus;whiteSpace=wrap;html=1;rounded=0;" vertex="1" parent="Ro4SRzFwu5mBoWV_5dLQ-5">
          <mxGeometry x="565" y="125" width="80" height="80" as="geometry" />
        </mxCell>
        <mxCell id="Ro4SRzFwu5mBoWV_5dLQ-32" value="Ask client to pay" style="whiteSpace=wrap;html=1;rounded=0;" vertex="1" parent="Ro4SRzFwu5mBoWV_5dLQ-5">
          <mxGeometry x="375" y="140" width="120" height="50" as="geometry" />
        </mxCell>
        <mxCell id="Ro4SRzFwu5mBoWV_5dLQ-35" value="" style="edgeStyle=orthogonalEdgeStyle;rounded=0;orthogonalLoop=1;jettySize=auto;html=1;" edge="1" parent="Ro4SRzFwu5mBoWV_5dLQ-5" source="Ro4SRzFwu5mBoWV_5dLQ-32" target="Ro4SRzFwu5mBoWV_5dLQ-34">
          <mxGeometry relative="1" as="geometry" />
        </mxCell>
        <mxCell id="Ro4SRzFwu5mBoWV_5dLQ-37" value="no" style="text;html=1;strokeColor=none;fillColor=none;align=center;verticalAlign=middle;whiteSpace=wrap;rounded=0;" vertex="1" parent="Ro4SRzFwu5mBoWV_5dLQ-5">
          <mxGeometry x="427" y="111" width="40" height="20" as="geometry" />
        </mxCell>
        <mxCell id="Ro4SRzFwu5mBoWV_5dLQ-66" value="no" style="text;html=1;strokeColor=none;fillColor=none;align=center;verticalAlign=middle;whiteSpace=wrap;rounded=0;" vertex="1" parent="Ro4SRzFwu5mBoWV_5dLQ-5">
          <mxGeometry x="840" y="140" width="40" height="20" as="geometry" />
        </mxCell>
        <mxCell id="Ro4SRzFwu5mBoWV_5dLQ-55" value="" style="edgeStyle=orthogonalEdgeStyle;rounded=0;orthogonalLoop=1;jettySize=auto;html=1;" edge="1" parent="Ro4SRzFwu5mBoWV_5dLQ-1" source="Ro4SRzFwu5mBoWV_5dLQ-18" target="Ro4SRzFwu5mBoWV_5dLQ-54">
          <mxGeometry relative="1" as="geometry" />
        </mxCell>
        <mxCell id="Ro4SRzFwu5mBoWV_5dLQ-65" value="" style="edgeStyle=orthogonalEdgeStyle;rounded=0;orthogonalLoop=1;jettySize=auto;html=1;entryX=0.5;entryY=1;entryDx=0;entryDy=0;" edge="1" parent="Ro4SRzFwu5mBoWV_5dLQ-1" source="Ro4SRzFwu5mBoWV_5dLQ-34" target="Ro4SRzFwu5mBoWV_5dLQ-48">
          <mxGeometry relative="1" as="geometry">
            <mxPoint x="705" y="545" as="targetPoint" />
          </mxGeometry>
        </mxCell>
        <mxCell id="Ro4SRzFwu5mBoWV_5dLQ-10" value="" style="edgeStyle=orthogonalEdgeStyle;rounded=0;orthogonalLoop=1;jettySize=auto;html=1;" edge="1" parent="1" source="Ro4SRzFwu5mBoWV_5dLQ-8" target="Ro4SRzFwu5mBoWV_5dLQ-9">
          <mxGeometry relative="1" as="geometry" />
        </mxCell>
        <mxCell id="Ro4SRzFwu5mBoWV_5dLQ-8" value="Submit a query (email, phone,walk in)" style="rounded=0;whiteSpace=wrap;html=1;" vertex="1" parent="1">
          <mxGeometry x="80" y="140" width="120" height="40" as="geometry" />
        </mxCell>
        <mxCell id="Ro4SRzFwu5mBoWV_5dLQ-12" value="" style="edgeStyle=orthogonalEdgeStyle;rounded=0;orthogonalLoop=1;jettySize=auto;html=1;" edge="1" parent="1" source="Ro4SRzFwu5mBoWV_5dLQ-9" target="Ro4SRzFwu5mBoWV_5dLQ-11">
          <mxGeometry relative="1" as="geometry" />
        </mxCell>
        <mxCell id="Ro4SRzFwu5mBoWV_5dLQ-9" value="Assign to officer for action" style="whiteSpace=wrap;html=1;rounded=0;" vertex="1" parent="1">
          <mxGeometry x="80" y="240" width="120" height="50" as="geometry" />
        </mxCell>
        <mxCell id="Ro4SRzFwu5mBoWV_5dLQ-14" value="" style="edgeStyle=orthogonalEdgeStyle;rounded=0;orthogonalLoop=1;jettySize=auto;html=1;" edge="1" parent="1" source="Ro4SRzFwu5mBoWV_5dLQ-11" target="Ro4SRzFwu5mBoWV_5dLQ-13">
          <mxGeometry relative="1" as="geometry" />
        </mxCell>
        <mxCell id="Ro4SRzFwu5mBoWV_5dLQ-11" value="Provide information to client" style="whiteSpace=wrap;html=1;rounded=0;" vertex="1" parent="1">
          <mxGeometry x="80" y="350" width="120" height="50" as="geometry" />
        </mxCell>
        <mxCell id="Ro4SRzFwu5mBoWV_5dLQ-16" value="" style="edgeStyle=orthogonalEdgeStyle;rounded=0;orthogonalLoop=1;jettySize=auto;html=1;" edge="1" parent="1" source="Ro4SRzFwu5mBoWV_5dLQ-13" target="Ro4SRzFwu5mBoWV_5dLQ-15">
          <mxGeometry relative="1" as="geometry" />
        </mxCell>
        <mxCell id="Ro4SRzFwu5mBoWV_5dLQ-21" value="" style="edgeStyle=orthogonalEdgeStyle;rounded=0;orthogonalLoop=1;jettySize=auto;html=1;" edge="1" parent="1" source="Ro4SRzFwu5mBoWV_5dLQ-13" target="Ro4SRzFwu5mBoWV_5dLQ-20">
          <mxGeometry relative="1" as="geometry" />
        </mxCell>
        <mxCell id="Ro4SRzFwu5mBoWV_5dLQ-13" value="Information available?" style="rhombus;whiteSpace=wrap;html=1;rounded=0;" vertex="1" parent="1">
          <mxGeometry x="270" y="320" width="110" height="110" as="geometry" />
        </mxCell>
        <mxCell id="Ro4SRzFwu5mBoWV_5dLQ-19" value="" style="edgeStyle=orthogonalEdgeStyle;rounded=0;orthogonalLoop=1;jettySize=auto;html=1;" edge="1" parent="1" source="Ro4SRzFwu5mBoWV_5dLQ-15" target="Ro4SRzFwu5mBoWV_5dLQ-18">
          <mxGeometry relative="1" as="geometry" />
        </mxCell>
        <mxCell id="Ro4SRzFwu5mBoWV_5dLQ-15" value="Share feedback form with client" style="whiteSpace=wrap;html=1;rounded=0;" vertex="1" parent="1">
          <mxGeometry x="430" y="345" width="90" height="60" as="geometry" />
        </mxCell>
        <mxCell id="Ro4SRzFwu5mBoWV_5dLQ-30" value="" style="edgeStyle=orthogonalEdgeStyle;rounded=0;orthogonalLoop=1;jettySize=auto;html=1;" edge="1" parent="1" source="Ro4SRzFwu5mBoWV_5dLQ-27" target="Ro4SRzFwu5mBoWV_5dLQ-29">
          <mxGeometry relative="1" as="geometry" />
        </mxCell>
        <mxCell id="Ro4SRzFwu5mBoWV_5dLQ-33" value="" style="edgeStyle=orthogonalEdgeStyle;rounded=0;orthogonalLoop=1;jettySize=auto;html=1;" edge="1" parent="1" source="Ro4SRzFwu5mBoWV_5dLQ-27" target="Ro4SRzFwu5mBoWV_5dLQ-32">
          <mxGeometry relative="1" as="geometry" />
        </mxCell>
        <mxCell id="Ro4SRzFwu5mBoWV_5dLQ-27" value="Is information free?" style="rhombus;whiteSpace=wrap;html=1;rounded=0;" vertex="1" parent="1">
          <mxGeometry x="430" y="440" width="90" height="100" as="geometry" />
        </mxCell>
        <mxCell id="Ro4SRzFwu5mBoWV_5dLQ-28" value="" style="edgeStyle=orthogonalEdgeStyle;rounded=0;orthogonalLoop=1;jettySize=auto;html=1;" edge="1" parent="1" source="Ro4SRzFwu5mBoWV_5dLQ-20" target="Ro4SRzFwu5mBoWV_5dLQ-27">
          <mxGeometry relative="1" as="geometry" />
        </mxCell>
        <mxCell id="Ro4SRzFwu5mBoWV_5dLQ-45" value="" style="edgeStyle=orthogonalEdgeStyle;rounded=0;orthogonalLoop=1;jettySize=auto;html=1;" edge="1" parent="1" source="Ro4SRzFwu5mBoWV_5dLQ-29" target="Ro4SRzFwu5mBoWV_5dLQ-44">
          <mxGeometry relative="1" as="geometry" />
        </mxCell>
        <mxCell id="Ro4SRzFwu5mBoWV_5dLQ-29" value="Compile and share with client" style="whiteSpace=wrap;html=1;rounded=0;" vertex="1" parent="1">
          <mxGeometry x="585" y="460" width="120" height="60" as="geometry" />
        </mxCell>
        <mxCell id="Ro4SRzFwu5mBoWV_5dLQ-36" value="" style="endArrow=classic;html=1;exitX=0.5;exitY=0;exitDx=0;exitDy=0;entryX=0.5;entryY=1;entryDx=0;entryDy=0;" edge="1" parent="1" source="Ro4SRzFwu5mBoWV_5dLQ-34" target="Ro4SRzFwu5mBoWV_5dLQ-29">
          <mxGeometry width="50" height="50" relative="1" as="geometry">
            <mxPoint x="490" y="450" as="sourcePoint" />
            <mxPoint x="637" y="520" as="targetPoint" />
          </mxGeometry>
        </mxCell>
        <mxCell id="Ro4SRzFwu5mBoWV_5dLQ-46" value="Add to exporters directory" style="whiteSpace=wrap;html=1;rounded=0;" vertex="1" parent="1">
          <mxGeometry x="880" y="350" width="100" height="60" as="geometry" />
        </mxCell>
        <mxCell id="Ro4SRzFwu5mBoWV_5dLQ-47" value="" style="edgeStyle=orthogonalEdgeStyle;rounded=0;orthogonalLoop=1;jettySize=auto;html=1;" edge="1" parent="1" source="Ro4SRzFwu5mBoWV_5dLQ-44" target="Ro4SRzFwu5mBoWV_5dLQ-46">
          <mxGeometry relative="1" as="geometry" />
        </mxCell>
        <mxCell id="Ro4SRzFwu5mBoWV_5dLQ-49" value="" style="edgeStyle=orthogonalEdgeStyle;rounded=0;orthogonalLoop=1;jettySize=auto;html=1;exitX=1;exitY=0.5;exitDx=0;exitDy=0;entryX=0;entryY=0.5;entryDx=0;entryDy=0;" edge="1" parent="1" source="Ro4SRzFwu5mBoWV_5dLQ-46" target="Ro4SRzFwu5mBoWV_5dLQ-48">
          <mxGeometry relative="1" as="geometry">
            <mxPoint x="1000" y="360" as="sourcePoint" />
            <mxPoint x="1034" y="360" as="targetPoint" />
          </mxGeometry>
        </mxCell>
        <mxCell id="Ro4SRzFwu5mBoWV_5dLQ-53" value="" style="endArrow=classic;html=1;exitX=0.5;exitY=1;exitDx=0;exitDy=0;" edge="1" parent="1" source="Ro4SRzFwu5mBoWV_5dLQ-7" target="Ro4SRzFwu5mBoWV_5dLQ-8">
          <mxGeometry width="50" height="50" relative="1" as="geometry">
            <mxPoint x="500" y="390" as="sourcePoint" />
            <mxPoint x="550" y="340" as="targetPoint" />
          </mxGeometry>
        </mxCell>
      </root>
    </mxGraphModel>
  </diagram>
</mxfile>
